<?xml version="1.0" standalone="no"?>
<!DOCTYPE svg PUBLIC "-//W3C//DTD SVG 20010904//EN"
 "http://www.w3.org/TR/2001/REC-SVG-20010904/DTD/svg10.dtd">
<svg version="1.0" xmlns="http://www.w3.org/2000/svg"
 width="512.000000pt" height="512.000000pt" viewBox="0 0 512.000000 512.000000"
 preserveAspectRatio="xMidYMid meet">
<metadata>
Created by potrace 1.14, written by Peter Selinger 2001-2017
</metadata>
<g transform="translate(0.000000,512.000000) scale(0.100000,-0.100000)"
fill="#000000" stroke="none">
<path d="M2900 3075 l0 -835 155 0 155 0 0 835 0 835 -155 0 -155 0 0 -835z"/>
<path d="M3929 3500 c-230 -36 -440 -219 -512 -445 -18 -57 -22 -94 -22 -195
0 -101 4 -138 22 -195 60 -188 216 -352 397 -415 92 -33 202 -44 302 -30 254
33 443 187 532 432 24 66 27 87 27 208 0 121 -3 142 -27 208 -73 201 -220 344
-419 407 -86 27 -217 38 -300 25z m257 -302 c62 -33 118 -93 153 -167 23 -50
26 -68 26 -171 0 -104 -3 -120 -27 -173 -57 -121 -173 -197 -302 -197 -92 0
-155 22 -215 76 -67 60 -98 115 -117 205 -42 204 56 391 236 450 14 5 63 7
110 5 68 -2 95 -8 136 -28z"/>
<path d="M4140 1951 c-296 -42 -511 -237 -592 -536 -18 -66 -21 -109 -22 -250
-1 -147 2 -181 22 -253 90 -332 337 -525 672 -525 177 0 320 52 438 158 l63
57 -43 47 c-23 25 -66 72 -95 104 l-53 59 -51 -46 c-72 -65 -143 -89 -245 -84
-164 8 -283 109 -341 287 -23 72 -28 282 -9 364 33 138 110 248 211 297 105
52 267 35 360 -36 26 -19 50 -34 54 -32 4 2 47 48 96 102 l89 99 -49 44 c-55
49 -183 114 -257 132 -66 16 -182 21 -248 12z"/>
<path d="M2260 1171 l0 -761 170 0 170 0 0 259 0 259 178 4 c157 4 186 8 258
31 212 70 324 206 349 427 10 80 -10 204 -44 277 -56 120 -151 192 -308 235
-71 19 -109 22 -425 26 l-348 4 0 -761z m621 479 c116 -22 169 -89 169 -215 0
-82 -22 -138 -69 -178 -50 -42 -118 -57 -258 -57 l-123 0 0 230 0 230 114 0
c62 0 137 -5 167 -10z"/>
</g>
</svg>
